<svg xmlns="http://www.w3.org/2000/svg" viewBox="0 0 120 120" role="img" aria-labelledby="title desc">
  <title id="title">MBG Program</title>
  <desc id="desc">Logo Makan Bergizi Gratis  lingkaran daun dan mangkuk</desc>
  <defs>
    <linearGradient id="g" x1="0%" y1="0%" x2="100%" y2="100%">
      <stop offset="0%" stop-color="#10b981"/>
      <stop offset="100%" stop-color="#059669"/>
    </linearGradient>
  </defs>
  <rect width="120" height="120" rx="28" fill="#0f172a"/>
  <circle cx="60" cy="60" r="44" fill="url(#g)" opacity="0.15"/>
  <path d="M60 28c-8 10-22 18-22 34 0 14 10 24 22 30 12-6 22-16 22-30 0-16-14-24-22-34z" fill="url(#g)"/>
  <path d="M38 78c6 10 14 14 22 14s16-4 22-14c-6-4-14-6-22-6s-16 2-22 6z" fill="#ecfdf5" opacity="0.95"/>
  <ellipse cx="60" cy="78" rx="18" ry="6" fill="#d1fae5" opacity="0.9"/>
  <text x="60" y="104" text-anchor="middle" font-family="system-ui,Segoe UI,sans-serif" font-size="11" font-weight="700" fill="#e2e8f0">MBG</text>
</svg>
